<svg id="Layer_1" data-name="Layer 1" xmlns="http://www.w3.org/2000/svg" viewBox="0 0 1366 768"><defs><style>.cls-1{fill:#8dc1ff;opacity:0.55;}.cls-2{fill:#f2f2f2;}.cls-3{fill:#2142a6;}.cls-4{fill:#d91604;}</style></defs><rect class="cls-1" width="1366" height="768"/><path class="cls-2" d="M576.28,298.32h9.33q6.27,0,9.3,2.12c2,1.42,3,3.67,3,6.76a12.26,12.26,0,0,1-.07,1.36,10.35,10.35,0,0,1-.4,1.72,7.62,7.62,0,0,1-.87,1.92,7.32,7.32,0,0,1-1.62,1.73,8.34,8.34,0,0,1-2.49,1.38,7.76,7.76,0,0,1,5,3.08,9.68,9.68,0,0,1,1.69,5.76q0,4.91-2.89,7.59t-8.61,2.69H576.28Zm3.81,15.52h7a8.43,8.43,0,0,0,5.15-1.31c1.16-.88,1.74-2.45,1.74-4.69s-.69-3.82-2.08-4.68-3.54-1.28-6.46-1.28h-5.32Zm0,3.4V331h6.8c2.76,0,4.82-.57,6.2-1.7s2.07-2.89,2.07-5.28-.74-4.24-2.23-5.24-3.81-1.5-7-1.5Z"/><path class="cls-2" d="M608.23,297.9v4.84h-3.69V297.9Zm0,9.74v26.79h-3.69V307.64Z"/><path class="cls-2" d="M622.34,335a16.68,16.68,0,0,1-4.54-.59,10.73,10.73,0,0,1-3.38-1.51l.46-3.44a14.22,14.22,0,0,0,7.22,2.17q5.37,0,5.52-4.2a3.58,3.58,0,0,0-1.14-2.81,15.69,15.69,0,0,0-4.49-2.29l-1.83-.71a10,10,0,0,1-4.52-2.91,6.93,6.93,0,0,1-1.38-4.32,6.75,6.75,0,0,1,2.28-5.22,8.89,8.89,0,0,1,6.24-2.08,15.88,15.88,0,0,1,7.46,1.76L629.16,312a15.4,15.4,0,0,0-6.38-1.56,5.75,5.75,0,0,0-3.62,1,3.38,3.38,0,0,0-1.31,2.84,3,3,0,0,0,.95,2.39,13.51,13.51,0,0,0,3.78,1.91c.49.19,1.09.42,1.83.68a12.15,12.15,0,0,1,5.17,3.11,8.26,8.26,0,0,1-.88,10.6A9.38,9.38,0,0,1,622.34,335Z"/><path class="cls-2" d="M643.82,334.91q-3.57,0-5.06-1.92t-1.59-6.23V310.67h-3.58l.15-2.68,3.41-.35,1.25-6.12,2.43-.1v6.22h6.71v3h-6.71V326a8.06,8.06,0,0,0,.83,4.29,3.19,3.19,0,0,0,2.86,1.25,25.88,25.88,0,0,0,3.15-.39l.15,3.22A22.66,22.66,0,0,1,643.82,334.91Z"/><path class="cls-2" d="M662.57,307.4a9.92,9.92,0,0,1,1.8.15l-.13,3.76a9.47,9.47,0,0,0-1.76-.2,6.15,6.15,0,0,0-5,2.38,9.09,9.09,0,0,0-1.92,5.9v15h-3.68q0-24.66,0-26.79h3.06l.35,4.81a11,11,0,0,1,3.19-3.66A6.93,6.93,0,0,1,662.57,307.4Z"/><path class="cls-2" d="M689,321q0,6.23-3,10.1a9.86,9.86,0,0,1-8.27,3.87,9.66,9.66,0,0,1-8.09-3.91,16,16,0,0,1-3-10q0-6.26,3-10.11a9.94,9.94,0,0,1,8.28-3.86A9.66,9.66,0,0,1,686,311,16.21,16.21,0,0,1,689,321Zm-18.56.08a13.62,13.62,0,0,0,1.91,7.63,6.25,6.25,0,0,0,5.55,2.86,6.07,6.07,0,0,0,5.45-2.85,14,14,0,0,0,1.84-7.69,14.19,14.19,0,0,0-1.82-7.73,6.76,6.76,0,0,0-11,.06A13.81,13.81,0,0,0,670.4,321.1Z"/><rect class="cls-3" x="694" y="320" width="129" height="1.12"/><path class="cls-2" d="M536.66,383.89a110.11,110.11,0,0,0-1.51,14c0,2.65.37,4,1.11,4l5-1.57,1.81,5.6A34.58,34.58,0,0,1,534.9,411a21.71,21.71,0,0,1-8.84,2.3q-6.55,0-8.28-6.27-8,6.27-14.08,6.27a10.73,10.73,0,0,1-9.44-4.93q-3.33-4.92-3.33-14.11A42.08,42.08,0,0,1,496.78,372q5.87-9.63,15.45-9.63a20.78,20.78,0,0,1,10.7,3.25,27.25,27.25,0,0,1,1.31-2.91q7.28,0,16.06,3.92A133.35,133.35,0,0,0,536.66,383.89Zm-26.75,9q0,5.65.7,7.11a2.66,2.66,0,0,0,2.63,1.46,5.48,5.48,0,0,0,3.73-1.68,133.82,133.82,0,0,1,3.84-27.22,6.15,6.15,0,0,0-3.48-1c-1.31,0-2.49.83-3.54,2.47a19,19,0,0,0-2.37,6.16A61.08,61.08,0,0,0,509.91,392.85Z"/><path class="cls-2" d="M574.62,334.44q0,8.18-5,31.81,5.87-3.92,10.81-3.92t8.68,4.59q3.74,4.59,3.73,16.75t-6,20.88q-6,8.74-14.79,8.74a19.82,19.82,0,0,1-10.4-3.14,68,68,0,0,1-17.06,2.69q-.51-.33-.51-3.81,0-8.17,5.91-35t5.9-36.51c0-1.65-.06-3.21-.2-4.71a62.34,62.34,0,0,1,18.27-3C574.42,330.48,574.62,332.05,574.62,334.44Zm-3.13,39.09a8,8,0,0,0-3.63,1.23q-4.35,20.73-5.05,27.89a7,7,0,0,0,3.33,1q3.43,0,5.6-8.18a58.88,58.88,0,0,0,2.17-15.06C573.91,375.83,573.11,373.53,571.49,373.53Z"/><path class="cls-2" d="M600.31,387.42Q603,376.67,603,374.2T599.35,367l.21-1.68a91.61,91.61,0,0,1,21.5-2.24,16.59,16.59,0,0,1,.81,6.05q0,4.14-2.78,15.68t-2.78,13.67c0,1.94.85,2.91,2.53,2.91a9.58,9.58,0,0,0,4.34-1.46q.3-1.79,1.82-9.41,3.53-16.91,3.53-25.31,4.65-2.24,15.85-2.24h2.73q0,5-2.68,19.71t-2.72,16.91c0,1.5.25,2.25.85,2.25l5-1.46,1.82,5.6a31.59,31.59,0,0,1-8.48,4.93,25.61,25.61,0,0,1-9.79,2.35q-6.27,0-7.78-5.6-8.38,5.6-16,5.6-9.6,0-9.59-10.42Q597.64,398.18,600.31,387.42Z"/><path class="cls-2" d="M686,396.83a14.58,14.58,0,0,1-5.8,11.7,20.79,20.79,0,0,1-13.58,4.76q-7.77,0-12.77-2.91t-5-5.55q0-2.62,3.08-6.72c2.05-2.72,4.16-4.31,6.31-4.76q4.65,2.81,8.38,12.44c1.95,0,2.93-.71,2.93-2.13a5.51,5.51,0,0,0-.81-2.91c-.54-.9-.94-1.61-1.21-2.13a20.22,20.22,0,0,0-1.41-2.19c-.68-.93-1.18-1.62-1.52-2.07-1.68-2.24-3.2-4.29-4.54-6.16q-4.85-6.72-4.85-11.81a12,12,0,0,1,2.93-8.35q5.05-5.71,14.84-5.71,6.16,0,9.79,2.63t3.64,7.84q0,5.2-5.55,11.93Q686,391.35,686,396.83Zm-6.76-20.56a7.55,7.55,0,0,0,1.21-3.75,2.92,2.92,0,0,0-1.31-2.57,5.41,5.41,0,0,0-3.13-.9,3.81,3.81,0,0,0-2.78.95,3.4,3.4,0,0,0-1,2.52c0,1.05,1.44,3.36,4.34,7A11.3,11.3,0,0,0,679.21,376.27Z"/><path class="cls-2" d="M720.91,335.67q0,7.84-5.15,32.26,8.67-5.49,13.68-5.49t7.42,3a11.33,11.33,0,0,1,2.42,7.39q0,4.43-2.22,13.89t-2.22,12.38q0,2.91.81,2.91l5.25-1.57,1.81,5.6a35.66,35.66,0,0,1-8.63,4.93,25.23,25.23,0,0,1-9.74,2.35q-8.18,0-8.18-10.3,0-4.71,2.12-13.89t2.12-11.59c0-1.61-.5-2.41-1.51-2.41-1.42,0-3.13.74-5.15,2.24q-4.54,21.39-4.54,29.79l.1,2.69a66.62,66.62,0,0,1-18.48,3c-.4-.22-.61-1.42-.61-3.58q0-6.94,6-34.39t6-37a30.27,30.27,0,0,0-.4-5.15,62.55,62.55,0,0,1,18.37-3A18.34,18.34,0,0,1,720.91,335.67Z"/><path class="cls-2" d="M757.05,337.91a23.38,23.38,0,0,0-.51-5.15,63.52,63.52,0,0,1,18.17-3c.68.89,1,2.87,1,5.93q0,8.18-4.54,31.36,8.09-4.69,14.29-4.7t9.49,2.8a9.78,9.78,0,0,1,3.28,7.84q0,9.75-13,13.89,3.24,15.45,6.26,15.45l4.85-1.45,2.22,5.49a31.28,31.28,0,0,1-7.77,4.59,24.64,24.64,0,0,1-10.1,2.35,8.16,8.16,0,0,1-7.37-4,24.83,24.83,0,0,1-3.23-10.53,136.09,136.09,0,0,1-.7-14.56,19.06,19.06,0,0,0,7.67-3.86q2.82-2.52,2.82-5c0-1.68-.8-2.52-2.42-2.52A10.69,10.69,0,0,0,773,374a15.57,15.57,0,0,0-3.79,2.35q-5.45,25.53-5.45,34.16a78.41,78.41,0,0,1-18.47,1.9,18.26,18.26,0,0,1-.11-2.12q0-5.83,6-34.11T757.05,337.91Z"/><path class="cls-2" d="M846.9,383.89a110.11,110.11,0,0,0-1.51,14c0,2.65.36,4,1.11,4l5-1.57,1.82,5.6a34.66,34.66,0,0,1-8.23,5.09,21.63,21.63,0,0,1-8.83,2.3q-6.57,0-8.28-6.27-8,6.27-14.08,6.27a10.72,10.72,0,0,1-9.44-4.93q-3.33-4.92-3.33-14.11A42.08,42.08,0,0,1,807,372q5.85-9.63,15.45-9.63a20.78,20.78,0,0,1,10.7,3.25,25.35,25.35,0,0,1,1.31-2.91q7.28,0,16,3.92A135.18,135.18,0,0,0,846.9,383.89Zm-26.75,9q0,5.65.7,7.11a2.66,2.66,0,0,0,2.63,1.46,5.48,5.48,0,0,0,3.73-1.68,133.82,133.82,0,0,1,3.84-27.22,6.15,6.15,0,0,0-3.48-1c-1.32,0-2.49.83-3.54,2.47a19,19,0,0,0-2.37,6.16A61.08,61.08,0,0,0,820.15,392.85Z"/><path class="cls-2" d="M454.28,417a67.28,67.28,0,0,1-22.4-3.93,52.56,52.56,0,0,1-18.76,3.08,30.34,30.34,0,0,1-4.34-.28q0-8.4,7.7-41.43t7.7-37.38a17.61,17.61,0,0,0-1.61-7.7,18.42,18.42,0,0,0-3.29-5.05l-1.54-1.54.56-3.5q3.49-.69,16.17-2A210.19,210.19,0,0,1,456,315.94q34.16,0,34.16,22,0,10.21-6.93,16.66A35.93,35.93,0,0,1,466,363.25a28.89,28.89,0,0,1,16.24,6.94q6.59,5.81,6.58,16.44a27.71,27.71,0,0,1-9.8,21.77Q469.27,417,454.28,417Zm-4.76-49a40.14,40.14,0,0,0-5.6.42q-5.46,23.94-7,34.71c2.05,1.22,4.85,1.82,8.4,1.82a13.32,13.32,0,0,0,12.18-6.72,28.73,28.73,0,0,0,4.06-15.19q0-8.46-3-11.75T449.52,368Zm-1.82-10.23a11.44,11.44,0,0,0,9.66-4.62,27.89,27.89,0,0,0,6.3-17.71q0-9.72-6.72-9.73l-4.62.56q-.13,5.47-5.88,31.5Z"/><rect class="cls-3" x="492" y="320" width="80.59" height="1.13"/><path class="cls-4" d="M833,353.25q5.29,1.74,10.61,3.43c3.53,1.11,7.07,2.19,10.62,3.2q3,.87,6.07,1.67c.36.1.55-.46.18-.56-3.58-.94-7.15-2-10.7-3s-7.07-2.18-10.59-3.32c-2-.64-4-1.3-6-2a.29.29,0,0,0-.18.56Z"/><path class="cls-4" d="M832.84,334.93l-.34,1.46a.28.28,0,0,0,.19.36.28.28,0,0,0,.36-.19l.35-1.45a.3.3,0,0,0-.19-.37.3.3,0,0,0-.37.19Z"/><path class="cls-4" d="M869.63,347.35c2.32,1,5.28,1.14,7.32-.57a7.14,7.14,0,0,0,2.47-6.31,4.76,4.76,0,0,0-2.68-3.22c-.33-.18-.66.31-.32.49a4.44,4.44,0,0,1,2.36,2.53,5.33,5.33,0,0,1-.24,3.13,7,7,0,0,1-1.75,2.73,5.09,5.09,0,0,1-3,1.33,8.22,8.22,0,0,1-4-.67c-.35-.15-.53.41-.18.56Z"/><path class="cls-4" d="M871.2,321.62a7.63,7.63,0,0,0-3.58-7.21,13.62,13.62,0,0,0-4.06-1.87,9.24,9.24,0,0,0-4.43-.24,13.44,13.44,0,0,0-4.94,2.67c-.3.22.09.66.39.44a14.11,14.11,0,0,1,4.2-2.42,8,8,0,0,1,4.13,0,13.54,13.54,0,0,1,3.9,1.6,8.64,8.64,0,0,1,2.86,2.75,6.3,6.3,0,0,1,1,4.27c-.06.37.53.39.58,0Z"/><path class="cls-4" d="M854.68,315.2a10.17,10.17,0,0,0-8.55-2.35,9.93,9.93,0,0,0-7,5.46,10.18,10.18,0,0,0-1.05,5c0,.38.61.41.58,0a9.9,9.9,0,0,1,3.22-7.77,9.27,9.27,0,0,1,8.06-2.14,9.16,9.16,0,0,1,4.33,2.13c.28.25.72-.14.44-.39Z"/><path class="cls-4" d="M838.61,323.18A8.14,8.14,0,0,0,834,321a5.44,5.44,0,0,0-4,1.24,5.86,5.86,0,0,0-1.38,2,12.67,12.67,0,0,0-.87,2.56,5.91,5.91,0,0,0,.88,4.44,13.8,13.8,0,0,0,4.16,3.85c.31.22.63-.28.32-.49-2.32-1.58-5.09-3.75-4.9-6.89a8.52,8.52,0,0,1,.62-2.43,7.7,7.7,0,0,1,1.11-2.15,4.52,4.52,0,0,1,3.5-1.58,7.17,7.17,0,0,1,4.75,2c.28.25.72-.14.44-.4Z"/><path class="cls-4" d="M840.39,334.3a33,33,0,0,0-1.8,10.83c0,1.05.06,2.1.16,3.15,0,.37.61.24.57-.13a32.5,32.5,0,0,1,.76-10.72,30.22,30.22,0,0,1,.87-2.95.29.29,0,0,0-.56-.18Z"/><path class="cls-4" d="M852.15,335.93a45.54,45.54,0,0,1-3.59,12.5c-.46,1.14-.95,2.26-1.44,3.39-.15.34.41.52.56.18a69.23,69.23,0,0,0,4.44-12.38,32.49,32.49,0,0,0,.61-3.66c0-.38-.54-.4-.58,0Z"/><path class="cls-4" d="M855.29,354.56q2.84-4.24,6-8.28c.58-.76,1.18-1.52,1.78-2.27.24-.29-.25-.61-.49-.32q-3.18,4-6.11,8.16c-.55.79-1.09,1.58-1.63,2.39-.21.31.28.63.49.32Z"/><path class="cls-4" d="M830.67,348.44a22.48,22.48,0,0,1-.26,2.3,2.18,2.18,0,0,0,1.08,2.16,12.61,12.61,0,0,0,2.1.6.29.29,0,0,0,.18-.56,8.34,8.34,0,0,1-2.15-.64,1.45,1.45,0,0,1-.62-1.13c-.08-.91.31-1.8.25-2.71,0-.37-.6-.4-.58,0Z"/><path class="cls-4" d="M832.69,335.48c-.34,3.4-1.06,6.74-1.61,10.1-.06.38.53.4.59,0,.55-3.37,1.27-6.71,1.61-10.1,0-.38-.55-.4-.59,0Z"/><path class="cls-4" d="M869.31,347A46.41,46.41,0,0,0,862,358q-.83,1.71-1.5,3.48c-.13.35.43.53.56.18a46.38,46.38,0,0,1,6.31-11.35c.75-1,1.54-1.94,2.37-2.87.25-.28-.14-.72-.39-.43Z"/><path class="cls-4" d="M871.15,321.54a10.65,10.65,0,0,1,5.49,4.62,10.41,10.41,0,0,1,1.17,7.23,10.55,10.55,0,0,1-1.64,3.91c-.22.31.27.63.49.32a11.25,11.25,0,0,0,1.86-7.67,11,11,0,0,0-3.51-6.73,11.2,11.2,0,0,0-3.68-2.24c-.35-.13-.53.43-.18.56Z"/><path class="cls-4" d="M831.39,344.82a23.09,23.09,0,0,0-.76,4.29.3.3,0,0,0,.59,0A21.64,21.64,0,0,1,832,345c.1-.36-.46-.54-.56-.17Z"/><path class="cls-4" d="M831.77,347.5,844,352.1a68.9,68.9,0,0,0,11.36,3.72,18.77,18.77,0,0,0,6.3.22c.28-.05.18-.48-.1-.43-3.79.56-7.59-.39-11.16-1.62-1.89-.64-3.76-1.37-5.63-2.07l-6-2.26-6.86-2.58c-.27-.1-.4.32-.14.42Z"/></svg>